<svg xmlns="http://www.w3.org/2000/svg" xmlns:xlink="http://www.w3.org/1999/xlink" contentStyleType="text/css" data-diagram-type="CLASS" height="312px" preserveAspectRatio="none" style="width:1143px;height:312px;background:#FFFFFF;" version="1.1" viewBox="0 0 1143 312" width="1143px" zoomAndPan="magnify"><defs/><g><!--class DrugController--><g class="entity" data-entity="DrugController" data-source-line="1" data-uid="ent0002" id="entity_DrugController"><rect fill="#F1F1F1" height="48" rx="2.5" ry="2.5" style="stroke:#181818;stroke-width:0.5;" width="135.4688" x="7" y="7"/><ellipse cx="22" cy="23" fill="#ADD1B2" rx="11" ry="11" style="stroke:#181818;stroke-width:1;"/><path d="M24.9688,28.6406 Q24.3906,28.9375 23.75,29.0781 Q23.1094,29.2344 22.4063,29.2344 Q19.9063,29.2344 18.5781,27.5938 Q17.2656,25.9375 17.2656,22.8125 Q17.2656,19.6875 18.5781,18.0313 Q19.9063,16.375 22.4063,16.375 Q23.1094,16.375 23.75,16.5313 Q24.4063,16.6875 24.9688,16.9844 L24.9688,19.7031 Q24.3438,19.125 23.75,18.8594 Q23.1563,18.5781 22.5313,18.5781 Q21.1875,18.5781 20.5,19.6563 Q19.8125,20.7188 19.8125,22.8125 Q19.8125,24.9063 20.5,25.9844 Q21.1875,27.0469 22.5313,27.0469 Q23.1563,27.0469 23.75,26.7813 Q24.3438,26.5 24.9688,25.9219 L24.9688,28.6406 Z " fill="#000000"/><text fill="#000000" font-family="sans-serif" font-size="14" lengthAdjust="spacing" textLength="103.4688" x="36" y="27.8467">DrugController</text><line style="stroke:#181818;stroke-width:0.5;" x1="8" x2="141.4688" y1="39" y2="39"/><line style="stroke:#181818;stroke-width:0.5;" x1="8" x2="141.4688" y1="47" y2="47"/></g><!--class DrugService--><g class="entity" data-entity="DrugService" data-source-line="1" data-uid="ent0003" id="entity_DrugService"><rect fill="#F1F1F1" height="48" rx="2.5" ry="2.5" style="stroke:#181818;stroke-width:0.5;" width="118.0371" x="15.72" y="132"/><ellipse cx="30.72" cy="148" fill="#ADD1B2" rx="11" ry="11" style="stroke:#181818;stroke-width:1;"/><path d="M33.6888,153.6406 Q33.1106,153.9375 32.47,154.0781 Q31.8294,154.2344 31.1263,154.2344 Q28.6263,154.2344 27.2981,152.5938 Q25.9856,150.9375 25.9856,147.8125 Q25.9856,144.6875 27.2981,143.0313 Q28.6263,141.375 31.1263,141.375 Q31.8294,141.375 32.47,141.5313 Q33.1263,141.6875 33.6888,141.9844 L33.6888,144.7031 Q33.0638,144.125 32.47,143.8594 Q31.8763,143.5781 31.2513,143.5781 Q29.9075,143.5781 29.22,144.6563 Q28.5325,145.7188 28.5325,147.8125 Q28.5325,149.9063 29.22,150.9844 Q29.9075,152.0469 31.2513,152.0469 Q31.8763,152.0469 32.47,151.7813 Q33.0638,151.5 33.6888,150.9219 L33.6888,153.6406 Z " fill="#000000"/><text fill="#000000" font-family="sans-serif" font-size="14" lengthAdjust="spacing" textLength="86.0371" x="44.72" y="152.8467">DrugService</text><line style="stroke:#181818;stroke-width:0.5;" x1="16.72" x2="132.7571" y1="164" y2="164"/><line style="stroke:#181818;stroke-width:0.5;" x1="16.72" x2="132.7571" y1="172" y2="172"/></g><!--class PharmacyInvoiceController--><g class="entity" data-entity="PharmacyInvoiceController" data-source-line="2" data-uid="ent0005" id="entity_PharmacyInvoiceController"><rect fill="#F1F1F1" height="48" rx="2.5" ry="2.5" style="stroke:#181818;stroke-width:0.5;" width="221.0752" x="311.2" y="7"/><ellipse cx="326.2" cy="23" fill="#ADD1B2" rx="11" ry="11" style="stroke:#181818;stroke-width:1;"/><path d="M329.1688,28.6406 Q328.5906,28.9375 327.95,29.0781 Q327.3094,29.2344 326.6063,29.2344 Q324.1063,29.2344 322.7781,27.5938 Q321.4656,25.9375 321.4656,22.8125 Q321.4656,19.6875 322.7781,18.0313 Q324.1063,16.375 326.6063,16.375 Q327.3094,16.375 327.95,16.5313 Q328.6063,16.6875 329.1688,16.9844 L329.1688,19.7031 Q328.5438,19.125 327.95,18.8594 Q327.3563,18.5781 326.7313,18.5781 Q325.3875,18.5781 324.7,19.6563 Q324.0125,20.7188 324.0125,22.8125 Q324.0125,24.9063 324.7,25.9844 Q325.3875,27.0469 326.7313,27.0469 Q327.3563,27.0469 327.95,26.7813 Q328.5438,26.5 329.1688,25.9219 L329.1688,28.6406 Z " fill="#000000"/><text fill="#000000" font-family="sans-serif" font-size="14" lengthAdjust="spacing" textLength="189.0752" x="340.2" y="27.8467">PharmacyInvoiceController</text><line style="stroke:#181818;stroke-width:0.5;" x1="312.2" x2="531.2752" y1="39" y2="39"/><line style="stroke:#181818;stroke-width:0.5;" x1="312.2" x2="531.2752" y1="47" y2="47"/></g><!--class PharmacyInvoiceService--><g class="entity" data-entity="PharmacyInvoiceService" data-source-line="2" data-uid="ent0006" id="entity_PharmacyInvoiceService"><rect fill="#F1F1F1" height="48" rx="2.5" ry="2.5" style="stroke:#181818;stroke-width:0.5;" width="203.6436" x="319.91" y="132"/><ellipse cx="334.91" cy="148" fill="#ADD1B2" rx="11" ry="11" style="stroke:#181818;stroke-width:1;"/><path d="M337.8788,153.6406 Q337.3006,153.9375 336.66,154.0781 Q336.0194,154.2344 335.3163,154.2344 Q332.8163,154.2344 331.4881,152.5938 Q330.1756,150.9375 330.1756,147.8125 Q330.1756,144.6875 331.4881,143.0313 Q332.8163,141.375 335.3163,141.375 Q336.0194,141.375 336.66,141.5313 Q337.3163,141.6875 337.8788,141.9844 L337.8788,144.7031 Q337.2538,144.125 336.66,143.8594 Q336.0663,143.5781 335.4413,143.5781 Q334.0975,143.5781 333.41,144.6563 Q332.7225,145.7188 332.7225,147.8125 Q332.7225,149.9063 333.41,150.9844 Q334.0975,152.0469 335.4413,152.0469 Q336.0663,152.0469 336.66,151.7813 Q337.2538,151.5 337.8788,150.9219 L337.8788,153.6406 Z " fill="#000000"/><text fill="#000000" font-family="sans-serif" font-size="14" lengthAdjust="spacing" textLength="171.6436" x="348.91" y="152.8467">PharmacyInvoiceService</text><line style="stroke:#181818;stroke-width:0.5;" x1="320.91" x2="522.5536" y1="164" y2="164"/><line style="stroke:#181818;stroke-width:0.5;" x1="320.91" x2="522.5536" y1="172" y2="172"/></g><!--class PharmacyPackageController--><g class="entity" data-entity="PharmacyPackageController" data-source-line="3" data-uid="ent0008" id="entity_PharmacyPackageController"><rect fill="#F1F1F1" height="48" rx="2.5" ry="2.5" style="stroke:#181818;stroke-width:0.5;" width="229.9277" x="818.77" y="7"/><ellipse cx="833.77" cy="23" fill="#ADD1B2" rx="11" ry="11" style="stroke:#181818;stroke-width:1;"/><path d="M836.7388,28.6406 Q836.1606,28.9375 835.52,29.0781 Q834.8794,29.2344 834.1763,29.2344 Q831.6763,29.2344 830.3481,27.5938 Q829.0356,25.9375 829.0356,22.8125 Q829.0356,19.6875 830.3481,18.0313 Q831.6763,16.375 834.1763,16.375 Q834.8794,16.375 835.52,16.5313 Q836.1763,16.6875 836.7388,16.9844 L836.7388,19.7031 Q836.1138,19.125 835.52,18.8594 Q834.9263,18.5781 834.3013,18.5781 Q832.9575,18.5781 832.27,19.6563 Q831.5825,20.7188 831.5825,22.8125 Q831.5825,24.9063 832.27,25.9844 Q832.9575,27.0469 834.3013,27.0469 Q834.9263,27.0469 835.52,26.7813 Q836.1138,26.5 836.7388,25.9219 L836.7388,28.6406 Z " fill="#000000"/><text fill="#000000" font-family="sans-serif" font-size="14" lengthAdjust="spacing" textLength="197.9277" x="847.77" y="27.8467">PharmacyPackageController</text><line style="stroke:#181818;stroke-width:0.5;" x1="819.77" x2="1047.6977" y1="39" y2="39"/><line style="stroke:#181818;stroke-width:0.5;" x1="819.77" x2="1047.6977" y1="47" y2="47"/></g><!--class PharmacyPackageService--><g class="entity" data-entity="PharmacyPackageService" data-source-line="3" data-uid="ent0009" id="entity_PharmacyPackageService"><rect fill="#F1F1F1" height="48" rx="2.5" ry="2.5" style="stroke:#181818;stroke-width:0.5;" width="212.4961" x="827.49" y="132"/><ellipse cx="842.49" cy="148" fill="#ADD1B2" rx="11" ry="11" style="stroke:#181818;stroke-width:1;"/><path d="M845.4588,153.6406 Q844.8806,153.9375 844.24,154.0781 Q843.5994,154.2344 842.8963,154.2344 Q840.3963,154.2344 839.0681,152.5938 Q837.7556,150.9375 837.7556,147.8125 Q837.7556,144.6875 839.0681,143.0313 Q840.3963,141.375 842.8963,141.375 Q843.5994,141.375 844.24,141.5313 Q844.8963,141.6875 845.4588,141.9844 L845.4588,144.7031 Q844.8338,144.125 844.24,143.8594 Q843.6463,143.5781 843.0213,143.5781 Q841.6775,143.5781 840.99,144.6563 Q840.3025,145.7188 840.3025,147.8125 Q840.3025,149.9063 840.99,150.9844 Q841.6775,152.0469 843.0213,152.0469 Q843.6463,152.0469 844.24,151.7813 Q844.8338,151.5 845.4588,150.9219 L845.4588,153.6406 Z " fill="#000000"/><text fill="#000000" font-family="sans-serif" font-size="14" lengthAdjust="spacing" textLength="180.4961" x="856.49" y="152.8467">PharmacyPackageService</text><line style="stroke:#181818;stroke-width:0.5;" x1="828.49" x2="1038.9861" y1="164" y2="164"/><line style="stroke:#181818;stroke-width:0.5;" x1="828.49" x2="1038.9861" y1="172" y2="172"/></g><!--class Drug--><g class="entity" data-entity="Drug" data-source-line="5" data-uid="ent0011" id="entity_Drug"><rect fill="#F1F1F1" height="48" rx="2.5" ry="2.5" style="stroke:#181818;stroke-width:0.5;" width="66.2959" x="41.59" y="257"/><ellipse cx="56.59" cy="273" fill="#ADD1B2" rx="11" ry="11" style="stroke:#181818;stroke-width:1;"/><path d="M59.5588,278.6406 Q58.9806,278.9375 58.34,279.0781 Q57.6994,279.2344 56.9963,279.2344 Q54.4963,279.2344 53.1681,277.5938 Q51.8556,275.9375 51.8556,272.8125 Q51.8556,269.6875 53.1681,268.0313 Q54.4963,266.375 56.9963,266.375 Q57.6994,266.375 58.34,266.5313 Q58.9963,266.6875 59.5588,266.9844 L59.5588,269.7031 Q58.9338,269.125 58.34,268.8594 Q57.7463,268.5781 57.1213,268.5781 Q55.7775,268.5781 55.09,269.6563 Q54.4025,270.7188 54.4025,272.8125 Q54.4025,274.9063 55.09,275.9844 Q55.7775,277.0469 57.1213,277.0469 Q57.7463,277.0469 58.34,276.7813 Q58.9338,276.5 59.5588,275.9219 L59.5588,278.6406 Z " fill="#000000"/><text fill="#000000" font-family="sans-serif" font-size="14" lengthAdjust="spacing" textLength="34.2959" x="70.59" y="277.8467">Drug</text><line style="stroke:#181818;stroke-width:0.5;" x1="42.59" x2="106.8859" y1="289" y2="289"/><line style="stroke:#181818;stroke-width:0.5;" x1="42.59" x2="106.8859" y1="297" y2="297"/></g><!--class PharmacyPackage--><g class="entity" data-entity="PharmacyPackage" data-source-line="6" data-uid="ent0013" id="entity_PharmacyPackage"><rect fill="#F1F1F1" height="48" rx="2.5" ry="2.5" style="stroke:#181818;stroke-width:0.5;" width="160.7549" x="747.36" y="257"/><ellipse cx="762.36" cy="273" fill="#ADD1B2" rx="11" ry="11" style="stroke:#181818;stroke-width:1;"/><path d="M765.3288,278.6406 Q764.7506,278.9375 764.11,279.0781 Q763.4694,279.2344 762.7663,279.2344 Q760.2663,279.2344 758.9381,277.5938 Q757.6256,275.9375 757.6256,272.8125 Q757.6256,269.6875 758.9381,268.0313 Q760.2663,266.375 762.7663,266.375 Q763.4694,266.375 764.11,266.5313 Q764.7663,266.6875 765.3288,266.9844 L765.3288,269.7031 Q764.7038,269.125 764.11,268.8594 Q763.5163,268.5781 762.8913,268.5781 Q761.5475,268.5781 760.86,269.6563 Q760.1725,270.7188 760.1725,272.8125 Q760.1725,274.9063 760.86,275.9844 Q761.5475,277.0469 762.8913,277.0469 Q763.5163,277.0469 764.11,276.7813 Q764.7038,276.5 765.3288,275.9219 L765.3288,278.6406 Z " fill="#000000"/><text fill="#000000" font-family="sans-serif" font-size="14" lengthAdjust="spacing" textLength="128.7549" x="776.36" y="277.8467">PharmacyPackage</text><line style="stroke:#181818;stroke-width:0.5;" x1="748.36" x2="907.1149" y1="289" y2="289"/><line style="stroke:#181818;stroke-width:0.5;" x1="748.36" x2="907.1149" y1="297" y2="297"/></g><!--class PharmacyPackageItem--><g class="entity" data-entity="PharmacyPackageItem" data-source-line="7" data-uid="ent0015" id="entity_PharmacyPackageItem"><rect fill="#F1F1F1" height="48" rx="2.5" ry="2.5" style="stroke:#181818;stroke-width:0.5;" width="192.624" x="943.42" y="257"/><ellipse cx="958.42" cy="273" fill="#ADD1B2" rx="11" ry="11" style="stroke:#181818;stroke-width:1;"/><path d="M961.3888,278.6406 Q960.8106,278.9375 960.17,279.0781 Q959.5294,279.2344 958.8263,279.2344 Q956.3263,279.2344 954.9981,277.5938 Q953.6856,275.9375 953.6856,272.8125 Q953.6856,269.6875 954.9981,268.0313 Q956.3263,266.375 958.8263,266.375 Q959.5294,266.375 960.17,266.5313 Q960.8263,266.6875 961.3888,266.9844 L961.3888,269.7031 Q960.7638,269.125 960.17,268.8594 Q959.5763,268.5781 958.9513,268.5781 Q957.6075,268.5781 956.92,269.6563 Q956.2325,270.7188 956.2325,272.8125 Q956.2325,274.9063 956.92,275.9844 Q957.6075,277.0469 958.9513,277.0469 Q959.5763,277.0469 960.17,276.7813 Q960.7638,276.5 961.3888,275.9219 L961.3888,278.6406 Z " fill="#000000"/><text fill="#000000" font-family="sans-serif" font-size="14" lengthAdjust="spacing" textLength="160.624" x="972.42" y="277.8467">PharmacyPackageItem</text><line style="stroke:#181818;stroke-width:0.5;" x1="944.42" x2="1135.044" y1="289" y2="289"/><line style="stroke:#181818;stroke-width:0.5;" x1="944.42" x2="1135.044" y1="297" y2="297"/></g><!--class PharmacyInvoice--><g class="entity" data-entity="PharmacyInvoice" data-source-line="8" data-uid="ent0017" id="entity_PharmacyInvoice"><rect fill="#F1F1F1" height="48" rx="2.5" ry="2.5" style="stroke:#181818;stroke-width:0.5;" width="151.9023" x="142.78" y="257"/><ellipse cx="157.78" cy="273" fill="#ADD1B2" rx="11" ry="11" style="stroke:#181818;stroke-width:1;"/><path d="M160.7488,278.6406 Q160.1706,278.9375 159.53,279.0781 Q158.8894,279.2344 158.1863,279.2344 Q155.6863,279.2344 154.3581,277.5938 Q153.0456,275.9375 153.0456,272.8125 Q153.0456,269.6875 154.3581,268.0313 Q155.6863,266.375 158.1863,266.375 Q158.8894,266.375 159.53,266.5313 Q160.1863,266.6875 160.7488,266.9844 L160.7488,269.7031 Q160.1238,269.125 159.53,268.8594 Q158.9363,268.5781 158.3113,268.5781 Q156.9675,268.5781 156.28,269.6563 Q155.5925,270.7188 155.5925,272.8125 Q155.5925,274.9063 156.28,275.9844 Q156.9675,277.0469 158.3113,277.0469 Q158.9363,277.0469 159.53,276.7813 Q160.1238,276.5 160.7488,275.9219 L160.7488,278.6406 Z " fill="#000000"/><text fill="#000000" font-family="sans-serif" font-size="14" lengthAdjust="spacing" textLength="119.9023" x="171.78" y="277.8467">PharmacyInvoice</text><line style="stroke:#181818;stroke-width:0.5;" x1="143.78" x2="293.6823" y1="289" y2="289"/><line style="stroke:#181818;stroke-width:0.5;" x1="143.78" x2="293.6823" y1="297" y2="297"/></g><!--class PharmacyInvoiceItem--><g class="entity" data-entity="PharmacyInvoiceItem" data-source-line="9" data-uid="ent0019" id="entity_PharmacyInvoiceItem"><rect fill="#F1F1F1" height="48" rx="2.5" ry="2.5" style="stroke:#181818;stroke-width:0.5;" width="183.7715" x="329.85" y="257"/><ellipse cx="344.85" cy="273" fill="#ADD1B2" rx="11" ry="11" style="stroke:#181818;stroke-width:1;"/><path d="M347.8188,278.6406 Q347.2406,278.9375 346.6,279.0781 Q345.9594,279.2344 345.2563,279.2344 Q342.7563,279.2344 341.4281,277.5938 Q340.1156,275.9375 340.1156,272.8125 Q340.1156,269.6875 341.4281,268.0313 Q342.7563,266.375 345.2563,266.375 Q345.9594,266.375 346.6,266.5313 Q347.2563,266.6875 347.8188,266.9844 L347.8188,269.7031 Q347.1938,269.125 346.6,268.8594 Q346.0063,268.5781 345.3813,268.5781 Q344.0375,268.5781 343.35,269.6563 Q342.6625,270.7188 342.6625,272.8125 Q342.6625,274.9063 343.35,275.9844 Q344.0375,277.0469 345.3813,277.0469 Q346.0063,277.0469 346.6,276.7813 Q347.1938,276.5 347.8188,275.9219 L347.8188,278.6406 Z " fill="#000000"/><text fill="#000000" font-family="sans-serif" font-size="14" lengthAdjust="spacing" textLength="151.7715" x="358.85" y="277.8467">PharmacyInvoiceItem</text><line style="stroke:#181818;stroke-width:0.5;" x1="330.85" x2="512.6215" y1="289" y2="289"/><line style="stroke:#181818;stroke-width:0.5;" x1="330.85" x2="512.6215" y1="297" y2="297"/></g><!--class PharmacyPayment--><g class="entity" data-entity="PharmacyPayment" data-source-line="10" data-uid="ent0021" id="entity_PharmacyPayment"><rect fill="#F1F1F1" height="48" rx="2.5" ry="2.5" style="stroke:#181818;stroke-width:0.5;" width="163.7695" x="548.85" y="257"/><ellipse cx="563.85" cy="273" fill="#ADD1B2" rx="11" ry="11" style="stroke:#181818;stroke-width:1;"/><path d="M566.8188,278.6406 Q566.2406,278.9375 565.6,279.0781 Q564.9594,279.2344 564.2563,279.2344 Q561.7563,279.2344 560.4281,277.5938 Q559.1156,275.9375 559.1156,272.8125 Q559.1156,269.6875 560.4281,268.0313 Q561.7563,266.375 564.2563,266.375 Q564.9594,266.375 565.6,266.5313 Q566.2563,266.6875 566.8188,266.9844 L566.8188,269.7031 Q566.1938,269.125 565.6,268.8594 Q565.0063,268.5781 564.3813,268.5781 Q563.0375,268.5781 562.35,269.6563 Q561.6625,270.7188 561.6625,272.8125 Q561.6625,274.9063 562.35,275.9844 Q563.0375,277.0469 564.3813,277.0469 Q565.0063,277.0469 565.6,276.7813 Q566.1938,276.5 566.8188,275.9219 L566.8188,278.6406 Z " fill="#000000"/><text fill="#000000" font-family="sans-serif" font-size="14" lengthAdjust="spacing" textLength="131.7695" x="577.85" y="277.8467">PharmacyPayment</text><line style="stroke:#181818;stroke-width:0.5;" x1="549.85" x2="711.6195" y1="289" y2="289"/><line style="stroke:#181818;stroke-width:0.5;" x1="549.85" x2="711.6195" y1="297" y2="297"/></g><!--link DrugController to DrugService--><g class="link" data-entity-1="DrugController" data-entity-2="DrugService" data-source-line="1" data-uid="lnk4" id="link_DrugController_DrugService"><path codeLine="1" d="M74.73,55.42 C74.73,77.31 74.73,103.8 74.73,125.66" fill="none" id="DrugController-to-DrugService" style="stroke:#181818;stroke-width:1;"/><polygon fill="#181818" points="74.73,131.66,78.73,122.66,74.73,126.66,70.73,122.66,74.73,131.66" style="stroke:#181818;stroke-width:1;"/><text fill="#000000" font-family="sans-serif" font-size="13" lengthAdjust="spacing" textLength="78.6284" x="75.73" y="98.0669">CRUD drugs</text></g><!--link PharmacyInvoiceController to PharmacyInvoiceService--><g class="link" data-entity-1="PharmacyInvoiceController" data-entity-2="PharmacyInvoiceService" data-source-line="2" data-uid="lnk7" id="link_PharmacyInvoiceController_PharmacyInvoiceService"><path codeLine="2" d="M421.73,55.42 C421.73,77.31 421.73,103.8 421.73,125.66" fill="none" id="PharmacyInvoiceController-to-PharmacyInvoiceService" style="stroke:#181818;stroke-width:1;"/><polygon fill="#181818" points="421.73,131.66,425.73,122.66,421.73,126.66,417.73,122.66,421.73,131.66" style="stroke:#181818;stroke-width:1;"/><text fill="#000000" font-family="sans-serif" font-size="13" lengthAdjust="spacing" textLength="39.1904" x="422.73" y="98.0669">billing</text></g><!--link PharmacyPackageController to PharmacyPackageService--><g class="link" data-entity-1="PharmacyPackageController" data-entity-2="PharmacyPackageService" data-source-line="3" data-uid="lnk10" id="link_PharmacyPackageController_PharmacyPackageService"><path codeLine="3" d="M933.73,55.42 C933.73,77.31 933.73,103.8 933.73,125.66" fill="none" id="PharmacyPackageController-to-PharmacyPackageService" style="stroke:#181818;stroke-width:1;"/><polygon fill="#181818" points="933.73,131.66,937.73,122.66,933.73,126.66,929.73,122.66,933.73,131.66" style="stroke:#181818;stroke-width:1;"/><text fill="#000000" font-family="sans-serif" font-size="13" lengthAdjust="spacing" textLength="51.3652" x="934.73" y="98.0669">bundles</text></g><!--link DrugService to Drug--><g class="link" data-entity-1="DrugService" data-entity-2="Drug" data-source-line="5" data-uid="lnk12" id="link_DrugService_Drug"><path codeLine="5" d="M74.73,180.42 C74.73,202.31 74.73,228.8 74.73,250.66" fill="none" id="DrugService-to-Drug" style="stroke:#181818;stroke-width:1;"/><polygon fill="#181818" points="74.73,256.66,78.73,247.66,74.73,251.66,70.73,247.66,74.73,256.66" style="stroke:#181818;stroke-width:1;"/><text fill="#000000" font-family="sans-serif" font-size="13" lengthAdjust="spacing" textLength="37.6353" x="75.73" y="223.0669">CRUD</text></g><!--link PharmacyPackageService to PharmacyPackage--><g class="link" data-entity-1="PharmacyPackageService" data-entity-2="PharmacyPackage" data-source-line="6" data-uid="lnk14" id="link_PharmacyPackageService_PharmacyPackage"><path codeLine="6" d="M913.55,180.42 C894.69,202.31 870.5959,230.254 851.7659,252.114" fill="none" id="PharmacyPackageService-to-PharmacyPackage" style="stroke:#181818;stroke-width:1;"/><polygon fill="#181818" points="847.85,256.66,856.7545,252.4516,851.1132,252.8717,850.6931,247.2304,847.85,256.66" style="stroke:#181818;stroke-width:1;"/><text fill="#000000" font-family="sans-serif" font-size="13" lengthAdjust="spacing" textLength="37.6353" x="888.73" y="223.0669">CRUD</text></g><!--link PharmacyPackageService to PharmacyPackageItem--><g class="link" data-entity-1="PharmacyPackageService" data-entity-2="PharmacyPackageItem" data-source-line="7" data-uid="lnk16" id="link_PharmacyPackageService_PharmacyPackageItem"><path codeLine="7" d="M953.92,180.42 C972.78,202.31 996.8741,230.254 1015.7041,252.114" fill="none" id="PharmacyPackageService-to-PharmacyPackageItem" style="stroke:#181818;stroke-width:1;stroke-dasharray:7.0,7.0;"/><polygon fill="#181818" points="1019.62,256.66,1016.7769,247.2304,1016.3568,252.8717,1010.7155,252.4516,1019.62,256.66" style="stroke:#181818;stroke-width:1;"/><text fill="#000000" font-family="sans-serif" font-size="13" lengthAdjust="spacing" textLength="79.2568" x="993.73" y="223.0669">composition</text></g><!--link PharmacyInvoiceService to PharmacyInvoice--><g class="link" data-entity-1="PharmacyInvoiceService" data-entity-2="PharmacyInvoice" data-source-line="8" data-uid="lnk18" id="link_PharmacyInvoiceService_PharmacyInvoice"><path codeLine="8" d="M383.07,180.42 C346.95,202.31 298.4616,231.6909 262.3816,253.5509" fill="none" id="PharmacyInvoiceService-to-PharmacyInvoice" style="stroke:#181818;stroke-width:1;"/><polygon fill="#181818" points="257.25,256.66,267.0202,255.4174,261.5263,254.0691,262.8747,248.5753,257.25,256.66" style="stroke:#181818;stroke-width:1;"/><text fill="#000000" font-family="sans-serif" font-size="13" lengthAdjust="spacing" textLength="37.6353" x="333.73" y="223.0669">CRUD</text></g><!--link PharmacyInvoiceService to PharmacyInvoiceItem--><g class="link" data-entity-1="PharmacyInvoiceService" data-entity-2="PharmacyInvoiceItem" data-source-line="9" data-uid="lnk20" id="link_PharmacyInvoiceService_PharmacyInvoiceItem"><path codeLine="9" d="M421.73,180.42 C421.73,202.31 421.73,228.8 421.73,250.66" fill="none" id="PharmacyInvoiceService-to-PharmacyInvoiceItem" style="stroke:#181818;stroke-width:1;stroke-dasharray:7.0,7.0;"/><polygon fill="#181818" points="421.73,256.66,425.73,247.66,421.73,251.66,417.73,247.66,421.73,256.66" style="stroke:#181818;stroke-width:1;"/><text fill="#000000" font-family="sans-serif" font-size="13" lengthAdjust="spacing" textLength="36.1436" x="422.73" y="223.0669">items</text></g><!--link PharmacyInvoiceService to PharmacyPayment--><g class="link" data-entity-1="PharmacyInvoiceService" data-entity-2="PharmacyPayment" data-source-line="10" data-uid="lnk22" id="link_PharmacyInvoiceService_PharmacyPayment"><path codeLine="10" d="M461.54,180.42 C498.73,202.31 548.7692,231.7565 585.9092,253.6165" fill="none" id="PharmacyInvoiceService-to-PharmacyPayment" style="stroke:#181818;stroke-width:1;stroke-dasharray:7.0,7.0;"/><polygon fill="#181818" points="591.08,256.66,585.3527,248.6476,586.771,254.1238,581.2948,255.542,591.08,256.66" style="stroke:#181818;stroke-width:1;"/><text fill="#000000" font-family="sans-serif" font-size="13" lengthAdjust="spacing" textLength="64.6826" x="540.73" y="223.0669">payments</text></g><!--SRC=[ZT113i8W40NGFQVW0kq1NBWfc-w8nWCW9KY4eG7QfBTt4b49bkWACZzlPe25HGyUKl3Mga2xxaWPbiugh4OgUg33wSBeXAL8-4q49-Gsmkenh5YLVZfSZRK6z9jp8Uz2jtXE2xx0P5KafDphjMTUa3JqJkCVek-_n9YKGoMzctqqoNWWZRVkV4CzhXBbk1pbSGQF-0_ZOdCA4fBvUOla0G00]--></g></svg>