<svg xmlns="http://www.w3.org/2000/svg" xmlns:xlink="http://www.w3.org/1999/xlink" contentStyleType="text/css" data-diagram-type="DESCRIPTION" height="455px" preserveAspectRatio="none" style="width:802px;height:455px;background:#FFFFFF;" version="1.1" viewBox="0 0 802 455" width="802px" zoomAndPan="magnify"><defs/><g><!--cluster Prescriptions--><g class="cluster" data-entity="Prescriptions" data-source-line="4" data-uid="ent0002" id="cluster_Prescriptions"><path d="M8.5,184 L113.9258,184 A3.75,3.75 0 0 1 116.4258,186.5 L123.4258,206.2969 L438.31,206.2969 A2.5,2.5 0 0 1 440.81,208.7969 L440.81,268.5 A2.5,2.5 0 0 1 438.31,271 L8.5,271 A2.5,2.5 0 0 1 6,268.5 L6,186.5 A2.5,2.5 0 0 1 8.5,184" fill="none" style="stroke:#000000;stroke-width:1.5;"/><line style="stroke:#000000;stroke-width:1.5;" x1="6" x2="123.4258" y1="206.2969" y2="206.2969"/><text fill="#000000" font-family="sans-serif" font-size="14" font-weight="bold" lengthAdjust="spacing" textLength="104.4258" x="10" y="198.9951">Prescriptions</text></g><!--cluster DB (Prisma)--><g class="cluster" data-entity="DB (Prisma)" data-source-line="9" data-uid="ent0005" id="cluster_DB (Prisma)"><path d="M544.31,6 L639.6049,6 A3.75,3.75 0 0 1 642.1049,8.5 L649.1049,28.2969 L793.29,28.2969 A2.5,2.5 0 0 1 795.79,30.7969 L795.79,445.5 A2.5,2.5 0 0 1 793.29,448 L544.31,448 A2.5,2.5 0 0 1 541.81,445.5 L541.81,8.5 A2.5,2.5 0 0 1 544.31,6" fill="none" style="stroke:#000000;stroke-width:1.5;"/><line style="stroke:#000000;stroke-width:1.5;" x1="541.81" x2="649.1049" y1="28.2969" y2="28.2969"/><text fill="#000000" font-family="sans-serif" font-size="14" font-weight="bold" lengthAdjust="spacing" textLength="94.2949" x="545.81" y="20.9951">DB (Prisma)</text></g><!--entity PrescriptionsController--><g class="entity" data-entity="PrescriptionsController" data-source-line="5" data-uid="ent0003" id="entity_PrescriptionsController"><rect fill="#F1F1F1" height="36.2969" rx="2.5" ry="2.5" style="stroke:#181818;stroke-width:0.5;" width="179.6191" x="22" y="218.85"/><text fill="#000000" font-family="sans-serif" font-size="14" lengthAdjust="spacing" textLength="159.6191" x="32" y="241.8451">PrescriptionsController</text></g><!--entity PrescriptionsService--><g class="entity" data-entity="PrescriptionsService" data-source-line="6" data-uid="ent0004" id="entity_PrescriptionsService"><rect fill="#F1F1F1" height="36.2969" rx="2.5" ry="2.5" style="stroke:#181818;stroke-width:0.5;" width="162.1875" x="262.62" y="218.85"/><text fill="#000000" font-family="sans-serif" font-size="14" lengthAdjust="spacing" textLength="142.1875" x="272.62" y="241.8451">PrescriptionsService</text></g><!--entity Prescription--><g class="entity" data-entity="Prescription" data-source-line="10" data-uid="ent0006" id="entity_Prescription"><rect fill="#F1F1F1" height="36.2969" rx="2.5" ry="2.5" style="stroke:#181818;stroke-width:0.5;" width="103.1523" x="617.22" y="40.85"/><text fill="#000000" font-family="sans-serif" font-size="14" lengthAdjust="spacing" textLength="83.1523" x="627.22" y="63.8451">Prescription</text></g><!--entity PrescriptionPrintEvent--><g class="entity" data-entity="PrescriptionPrintEvent" data-source-line="11" data-uid="ent0007" id="entity_PrescriptionPrintEvent"><rect fill="#F1F1F1" height="36.2969" rx="2.5" ry="2.5" style="stroke:#181818;stroke-width:0.5;" width="175.709" x="580.94" y="111.85"/><text fill="#000000" font-family="sans-serif" font-size="14" lengthAdjust="spacing" textLength="155.709" x="590.94" y="134.8451">PrescriptionPrintEvent</text></g><!--entity PrescriptionTemplate--><g class="entity" data-entity="PrescriptionTemplate" data-source-line="12" data-uid="ent0008" id="entity_PrescriptionTemplate"><rect fill="#F1F1F1" height="36.2969" rx="2.5" ry="2.5" style="stroke:#181818;stroke-width:0.5;" width="169.4131" x="584.09" y="182.85"/><text fill="#000000" font-family="sans-serif" font-size="14" lengthAdjust="spacing" textLength="149.4131" x="594.09" y="205.8451">PrescriptionTemplate</text></g><!--entity PrescriptionTemplateVersion--><g class="entity" data-entity="PrescriptionTemplateVersion" data-source-line="13" data-uid="ent0009" id="entity_PrescriptionTemplateVersion"><rect fill="#F1F1F1" height="36.2969" rx="2.5" ry="2.5" style="stroke:#181818;stroke-width:0.5;" width="221.9814" x="557.81" y="253.85"/><text fill="#000000" font-family="sans-serif" font-size="14" lengthAdjust="spacing" textLength="201.9814" x="567.81" y="276.8451">PrescriptionTemplateVersion</text></g><!--entity TemplateVersionApproval--><g class="entity" data-entity="TemplateVersionApproval" data-source-line="14" data-uid="ent0010" id="entity_TemplateVersionApproval"><rect fill="#F1F1F1" height="36.2969" rx="2.5" ry="2.5" style="stroke:#181818;stroke-width:0.5;" width="201.2549" x="568.17" y="324.85"/><text fill="#000000" font-family="sans-serif" font-size="14" lengthAdjust="spacing" textLength="181.2549" x="578.17" y="347.8451">TemplateVersionApproval</text></g><!--entity TemplateUsage--><g class="entity" data-entity="TemplateUsage" data-source-line="15" data-uid="ent0011" id="entity_TemplateUsage"><rect fill="#F1F1F1" height="36.2969" rx="2.5" ry="2.5" style="stroke:#181818;stroke-width:0.5;" width="129.8809" x="603.86" y="395.85"/><text fill="#000000" font-family="sans-serif" font-size="14" lengthAdjust="spacing" textLength="109.8809" x="613.86" y="418.8451">TemplateUsage</text></g><!--link PrescriptionsController to PrescriptionsService--><g class="link" data-entity-1="PrescriptionsController" data-entity-2="PrescriptionsService" data-source-line="18" data-uid="lnk12" id="link_PrescriptionsController_PrescriptionsService"><path d="M202.03,237 C221.84,237 236.73,237 256.18,237" fill="none" id="PrescriptionsController-to-PrescriptionsService" style="stroke:#181818;stroke-width:1;"/><polygon fill="#181818" points="262.18,237,253.18,233,257.18,237,253.18,241,262.18,237" style="stroke:#181818;stroke-width:1;"/></g><!--link PrescriptionsService to Prescription--><g class="link" data-entity-1="PrescriptionsService" data-entity-2="Prescription" data-source-line="19" data-uid="lnk13" id="link_PrescriptionsService_Prescription"><path d="M362.89,218.39 C394.51,187.22 463.06,124.84 533.81,94 C560.25,82.47 585.4928,75.3611 611.0628,69.6811" fill="none" id="PrescriptionsService-to-Prescription" style="stroke:#181818;stroke-width:1;"/><polygon fill="#181818" points="616.92,68.38,607.2668,66.4268,612.039,69.4642,609.0016,74.2365,616.92,68.38" style="stroke:#181818;stroke-width:1;"/><text fill="#000000" font-family="sans-serif" font-size="13" lengthAdjust="spacing" textLength="37.6353" x="472.81" y="96.0669">CRUD</text></g><!--link PrescriptionsService to PrescriptionPrintEvent--><g class="link" data-entity-1="PrescriptionsService" data-entity-2="PrescriptionPrintEvent" data-source-line="20" data-uid="lnk14" id="link_PrescriptionsService_PrescriptionPrintEvent"><path d="M389.8,218.37 C410.19,210.08 434.63,200.34 456.81,192 C490.75,179.24 499.12,175.59 533.81,165 C552.55,159.28 567.1367,155.1738 586.2167,150.1638" fill="none" id="PrescriptionsService-to-PrescriptionPrintEvent" style="stroke:#181818;stroke-width:1;stroke-dasharray:7.0,7.0;"/><polygon fill="#181818" points="592.02,148.64,582.2992,147.0569,587.1839,149.9098,584.331,154.7946,592.02,148.64" style="stroke:#181818;stroke-width:1;"/><text fill="#000000" font-family="sans-serif" font-size="13" lengthAdjust="spacing" textLength="53.187" x="464.81" y="164.0669">tracking</text></g><!--link PrescriptionsService to PrescriptionTemplate--><g class="link" data-entity-1="PrescriptionsService" data-entity-2="PrescriptionTemplate" data-source-line="21" data-uid="lnk15" id="link_PrescriptionsService_PrescriptionTemplate"><path d="M424.99,228.05 C473.3,222.67 528.7569,216.4947 577.7369,211.0347" fill="none" id="PrescriptionsService-to-PrescriptionTemplate" style="stroke:#181818;stroke-width:1;stroke-dasharray:7.0,7.0;"/><polygon fill="#181818" points="583.7,210.37,574.3123,207.3917,578.7308,210.9239,575.1986,215.3425,583.7,210.37" style="stroke:#181818;stroke-width:1;"/><text fill="#000000" font-family="sans-serif" font-size="13" lengthAdjust="spacing" textLength="41.8247" x="470.81" y="213.0669">library</text></g><!--link PrescriptionsService to PrescriptionTemplateVersion--><g class="link" data-entity-1="PrescriptionsService" data-entity-2="PrescriptionTemplateVersion" data-source-line="22" data-uid="lnk16" id="link_PrescriptionsService_PrescriptionTemplateVersion"><path d="M409.46,255.64 C424.85,259.39 441.31,262.83 456.81,265 C489.29,269.54 518.8526,271.593 551.3726,272.553" fill="none" id="PrescriptionsService-to-PrescriptionTemplateVersion" style="stroke:#181818;stroke-width:1;stroke-dasharray:7.0,7.0;"/><polygon fill="#181818" points="557.37,272.73,548.4919,268.4662,552.3722,272.5825,548.2559,276.4627,557.37,272.73" style="stroke:#181818;stroke-width:1;"/><text fill="#000000" font-family="sans-serif" font-size="13" lengthAdjust="spacing" textLength="67.7168" x="457.81" y="261.0669">versioning</text></g><!--link PrescriptionsService to TemplateVersionApproval--><g class="link" data-entity-1="PrescriptionsService" data-entity-2="TemplateVersionApproval" data-source-line="23" data-uid="lnk17" id="link_PrescriptionsService_TemplateVersionApproval"><path d="M373.64,255.37 C395.68,268.64 427.19,286.09 456.81,297 C492.07,310 526.1889,318.6812 561.8089,325.8812" fill="none" id="PrescriptionsService-to-TemplateVersionApproval" style="stroke:#181818;stroke-width:1;stroke-dasharray:7.0,7.0;"/><polygon fill="#181818" points="567.69,327.07,559.6609,321.3662,562.7891,326.0794,558.0759,329.2076,567.69,327.07" style="stroke:#181818;stroke-width:1;"/><text fill="#000000" font-family="sans-serif" font-size="13" lengthAdjust="spacing" textLength="63.813" x="459.81" y="293.0669">approvals</text></g><!--link PrescriptionsService to TemplateUsage--><g class="link" data-entity-1="PrescriptionsService" data-entity-2="TemplateUsage" data-source-line="24" data-uid="lnk18" id="link_PrescriptionsService_TemplateUsage"><path d="M360.7,255.38 C381.21,278.14 418.72,317.09 456.81,343 C501.22,373.22 553.7717,390.1662 597.8617,400.6162" fill="none" id="PrescriptionsService-to-TemplateUsage" style="stroke:#181818;stroke-width:1;stroke-dasharray:7.0,7.0;"/><polygon fill="#181818" points="603.7,402,595.8651,396.0322,598.8348,400.8469,594.0201,403.8165,603.7,402" style="stroke:#181818;stroke-width:1;"/><text fill="#000000" font-family="sans-serif" font-size="13" lengthAdjust="spacing" textLength="58.1064" x="462.31" y="339.0669">analytics</text></g><!--SRC=[bP3DJWCn38JlUGgh9pYq3y012Lhk5QLSK0yccCLgreaSQwKLujt9bbQmx2u_jyYUR-APGCy65a6vUZ5uOYLl7CNbFKj2nHfyh5CK4jjO6mWw0KeLoBc4VeyLmMojbBrowiWyWrS7yD2RBQEOnX18TuFTXhHXJpltziLnTGrdQ-LSu_c8ty2aICLkcdBaO7L7TGfeDBcu9yqdps-pgvGqDXXwksqk5nwkdOW8y_abZ4LqOyE16YvWURjTZOiNYxxuCtZ1J4jzBDNVq5EU0WP-LDJsVzoneu8t7wyVVvvejj1uVERVuKFr7I8OMcEVtJi0]--></g></svg>