<svg xmlns="http://www.w3.org/2000/svg" xmlns:xlink="http://www.w3.org/1999/xlink" contentStyleType="text/css" data-diagram-type="DESCRIPTION" height="363px" preserveAspectRatio="none" style="width:1336px;height:363px;background:#FFFFFF;" version="1.1" viewBox="0 0 1336 363" width="1336px" zoomAndPan="magnify"><defs/><g><!--cluster Visits Components--><g class="cluster" data-entity="Visits Components" data-source-line="1" data-uid="ent0002" id="cluster_Visits Components"><path d="M8.5,6 L156.7393,6 A3.75,3.75 0 0 1 159.2393,8.5 L166.2393,28.2969 L634.5,28.2969 A2.5,2.5 0 0 1 637,30.7969 L637,224.09 A2.5,2.5 0 0 1 634.5,226.59 L8.5,226.59 A2.5,2.5 0 0 1 6,224.09 L6,8.5 A2.5,2.5 0 0 1 8.5,6" fill="none" style="stroke:#000000;stroke-width:1.5;"/><line style="stroke:#000000;stroke-width:1.5;" x1="6" x2="166.2393" y1="28.2969" y2="28.2969"/><text fill="#000000" font-family="sans-serif" font-size="14" font-weight="bold" lengthAdjust="spacing" textLength="147.2393" x="10" y="20.9951">Visits Components</text></g><!--cluster UI (shadcn)--><g class="cluster" data-entity="UI (shadcn)" data-source-line="8" data-uid="ent0007" id="cluster_UI (shadcn)"><path d="M214.5,259.59 L305.7822,259.59 A3.75,3.75 0 0 1 308.2822,262.09 L315.2822,281.8869 L1326.5,281.8869 A2.5,2.5 0 0 1 1329,284.3869 L1329,354.39 A2.5,2.5 0 0 1 1326.5,356.89 L214.5,356.89 A2.5,2.5 0 0 1 212,354.39 L212,262.09 A2.5,2.5 0 0 1 214.5,259.59" fill="none" style="stroke:#000000;stroke-width:1.5;"/><line style="stroke:#000000;stroke-width:1.5;" x1="212" x2="315.2822" y1="281.8869" y2="281.8869"/><text fill="#000000" font-family="sans-serif" font-size="14" font-weight="bold" lengthAdjust="spacing" textLength="90.2822" x="216" y="274.5851">UI (shadcn)</text></g><!--entity MedicalVisitForm.tsx--><g class="entity" data-entity="MedicalVisitForm.tsx" data-source-line="2" data-uid="ent0003" id="entity_MedicalVisitForm.tsx"><rect fill="#F1F1F1" height="46.2969" rx="2.5" ry="2.5" style="stroke:#181818;stroke-width:0.5;" width="185.3047" x="435.35" y="41"/><rect fill="#F1F1F1" height="10" style="stroke:#181818;stroke-width:0.5;" width="15" x="600.6547" y="46"/><rect fill="#F1F1F1" height="2" style="stroke:#181818;stroke-width:0.5;" width="4" x="598.6547" y="48"/><rect fill="#F1F1F1" height="2" style="stroke:#181818;stroke-width:0.5;" width="4" x="598.6547" y="52"/><text fill="#000000" font-family="sans-serif" font-size="14" lengthAdjust="spacing" textLength="145.3047" x="450.35" y="73.9951">MedicalVisitForm.tsx</text></g><!--entity VisitStateContext.tsx--><g class="entity" data-entity="VisitStateContext.tsx" data-source-line="3" data-uid="ent0004" id="entity_VisitStateContext.tsx"><rect fill="#F1F1F1" height="46.2969" rx="2.5" ry="2.5" style="stroke:#181818;stroke-width:0.5;" width="187.8066" x="433.1" y="164.3"/><rect fill="#F1F1F1" height="10" style="stroke:#181818;stroke-width:0.5;" width="15" x="600.9066" y="169.3"/><rect fill="#F1F1F1" height="2" style="stroke:#181818;stroke-width:0.5;" width="4" x="598.9066" y="171.3"/><rect fill="#F1F1F1" height="2" style="stroke:#181818;stroke-width:0.5;" width="4" x="598.9066" y="175.3"/><text fill="#000000" font-family="sans-serif" font-size="14" lengthAdjust="spacing" textLength="147.8066" x="448.1" y="197.2951">VisitStateContext.tsx</text></g><!--entity VisitPhotos.tsx--><g class="entity" data-entity="VisitPhotos.tsx" data-source-line="4" data-uid="ent0005" id="entity_VisitPhotos.tsx"><rect fill="#F1F1F1" height="46.2969" rx="2.5" ry="2.5" style="stroke:#181818;stroke-width:0.5;" width="142.8877" x="21.56" y="164.3"/><rect fill="#F1F1F1" height="10" style="stroke:#181818;stroke-width:0.5;" width="15" x="144.4477" y="169.3"/><rect fill="#F1F1F1" height="2" style="stroke:#181818;stroke-width:0.5;" width="4" x="142.4477" y="171.3"/><rect fill="#F1F1F1" height="2" style="stroke:#181818;stroke-width:0.5;" width="4" x="142.4477" y="175.3"/><text fill="#000000" font-family="sans-serif" font-size="14" lengthAdjust="spacing" textLength="102.8877" x="36.56" y="197.2951">VisitPhotos.tsx</text></g><!--entity PrescriptionBuilder.tsx--><g class="entity" data-entity="PrescriptionBuilder.tsx" data-source-line="5" data-uid="ent0006" id="entity_PrescriptionBuilder.tsx"><rect fill="#F1F1F1" height="46.2969" rx="2.5" ry="2.5" style="stroke:#181818;stroke-width:0.5;" width="198.1836" x="199.91" y="164.3"/><rect fill="#F1F1F1" height="10" style="stroke:#181818;stroke-width:0.5;" width="15" x="378.0936" y="169.3"/><rect fill="#F1F1F1" height="2" style="stroke:#181818;stroke-width:0.5;" width="4" x="376.0936" y="171.3"/><rect fill="#F1F1F1" height="2" style="stroke:#181818;stroke-width:0.5;" width="4" x="376.0936" y="175.3"/><text fill="#000000" font-family="sans-serif" font-size="14" lengthAdjust="spacing" textLength="158.1836" x="214.91" y="197.2951">PrescriptionBuilder.tsx</text></g><!--entity ui/form.tsx--><g class="entity" data-entity="ui/form.tsx" data-source-line="9" data-uid="ent0008" id="entity_ui/form.tsx"><rect fill="#F1F1F1" height="46.2969" rx="2.5" ry="2.5" style="stroke:#181818;stroke-width:0.5;" width="115.8857" x="1197.06" y="294.59"/><rect fill="#F1F1F1" height="10" style="stroke:#181818;stroke-width:0.5;" width="15" x="1292.9457" y="299.59"/><rect fill="#F1F1F1" height="2" style="stroke:#181818;stroke-width:0.5;" width="4" x="1290.9457" y="301.59"/><rect fill="#F1F1F1" height="2" style="stroke:#181818;stroke-width:0.5;" width="4" x="1290.9457" y="305.59"/><text fill="#000000" font-family="sans-serif" font-size="14" lengthAdjust="spacing" textLength="75.8857" x="1212.06" y="327.5851">ui/form.tsx</text></g><!--entity ui/input.tsx--><g class="entity" data-entity="ui/input.tsx" data-source-line="10" data-uid="ent0009" id="entity_ui/input.tsx"><rect fill="#F1F1F1" height="46.2969" rx="2.5" ry="2.5" style="stroke:#181818;stroke-width:0.5;" width="119.0098" x="729.5" y="294.59"/><rect fill="#F1F1F1" height="10" style="stroke:#181818;stroke-width:0.5;" width="15" x="828.5098" y="299.59"/><rect fill="#F1F1F1" height="2" style="stroke:#181818;stroke-width:0.5;" width="4" x="826.5098" y="301.59"/><rect fill="#F1F1F1" height="2" style="stroke:#181818;stroke-width:0.5;" width="4" x="826.5098" y="305.59"/><text fill="#000000" font-family="sans-serif" font-size="14" lengthAdjust="spacing" textLength="79.0098" x="744.5" y="327.5851">ui/input.tsx</text></g><!--entity ui/select.tsx--><g class="entity" data-entity="ui/select.tsx" data-source-line="11" data-uid="ent0010" id="entity_ui/select.tsx"><rect fill="#F1F1F1" height="46.2969" rx="2.5" ry="2.5" style="stroke:#181818;stroke-width:0.5;" width="124.5947" x="1037.7" y="294.59"/><rect fill="#F1F1F1" height="10" style="stroke:#181818;stroke-width:0.5;" width="15" x="1142.2947" y="299.59"/><rect fill="#F1F1F1" height="2" style="stroke:#181818;stroke-width:0.5;" width="4" x="1140.2947" y="301.59"/><rect fill="#F1F1F1" height="2" style="stroke:#181818;stroke-width:0.5;" width="4" x="1140.2947" y="305.59"/><text fill="#000000" font-family="sans-serif" font-size="14" lengthAdjust="spacing" textLength="84.5947" x="1052.7" y="327.5851">ui/select.tsx</text></g><!--entity ui/textarea.tsx--><g class="entity" data-entity="ui/textarea.tsx" data-source-line="12" data-uid="ent0011" id="entity_ui/textarea.tsx"><rect fill="#F1F1F1" height="46.2969" rx="2.5" ry="2.5" style="stroke:#181818;stroke-width:0.5;" width="142.4023" x="227.8" y="294.59"/><rect fill="#F1F1F1" height="10" style="stroke:#181818;stroke-width:0.5;" width="15" x="350.2023" y="299.59"/><rect fill="#F1F1F1" height="2" style="stroke:#181818;stroke-width:0.5;" width="4" x="348.2023" y="301.59"/><rect fill="#F1F1F1" height="2" style="stroke:#181818;stroke-width:0.5;" width="4" x="348.2023" y="305.59"/><text fill="#000000" font-family="sans-serif" font-size="14" lengthAdjust="spacing" textLength="102.4023" x="242.8" y="327.5851">ui/textarea.tsx</text></g><!--entity ui/dialog.tsx--><g class="entity" data-entity="ui/dialog.tsx" data-source-line="13" data-uid="ent0012" id="entity_ui/dialog.tsx"><rect fill="#F1F1F1" height="46.2969" rx="2.5" ry="2.5" style="stroke:#181818;stroke-width:0.5;" width="125.6953" x="569.15" y="294.59"/><rect fill="#F1F1F1" height="10" style="stroke:#181818;stroke-width:0.5;" width="15" x="674.8453" y="299.59"/><rect fill="#F1F1F1" height="2" style="stroke:#181818;stroke-width:0.5;" width="4" x="672.8453" y="301.59"/><rect fill="#F1F1F1" height="2" style="stroke:#181818;stroke-width:0.5;" width="4" x="672.8453" y="305.59"/><text fill="#000000" font-family="sans-serif" font-size="14" lengthAdjust="spacing" textLength="85.6953" x="584.15" y="327.5851">ui/dialog.tsx</text></g><!--entity ui/button.tsx--><g class="entity" data-entity="ui/button.tsx" data-source-line="14" data-uid="ent0013" id="entity_ui/button.tsx"><rect fill="#F1F1F1" height="46.2969" rx="2.5" ry="2.5" style="stroke:#181818;stroke-width:0.5;" width="129.1748" x="405.41" y="294.59"/><rect fill="#F1F1F1" height="10" style="stroke:#181818;stroke-width:0.5;" width="15" x="514.5848" y="299.59"/><rect fill="#F1F1F1" height="2" style="stroke:#181818;stroke-width:0.5;" width="4" x="512.5848" y="301.59"/><rect fill="#F1F1F1" height="2" style="stroke:#181818;stroke-width:0.5;" width="4" x="512.5848" y="305.59"/><text fill="#000000" font-family="sans-serif" font-size="14" lengthAdjust="spacing" textLength="89.1748" x="420.41" y="327.5851">ui/button.tsx</text></g><!--entity ui/table.tsx--><g class="entity" data-entity="ui/table.tsx" data-source-line="15" data-uid="ent0014" id="entity_ui/table.tsx"><rect fill="#F1F1F1" height="46.2969" rx="2.5" ry="2.5" style="stroke:#181818;stroke-width:0.5;" width="118.4561" x="883.77" y="294.59"/><rect fill="#F1F1F1" height="10" style="stroke:#181818;stroke-width:0.5;" width="15" x="982.2261" y="299.59"/><rect fill="#F1F1F1" height="2" style="stroke:#181818;stroke-width:0.5;" width="4" x="980.2261" y="301.59"/><rect fill="#F1F1F1" height="2" style="stroke:#181818;stroke-width:0.5;" width="4" x="980.2261" y="305.59"/><text fill="#000000" font-family="sans-serif" font-size="14" lengthAdjust="spacing" textLength="78.4561" x="898.77" y="327.5851">ui/table.tsx</text></g><!--link MedicalVisitForm.tsx to VisitStateContext.tsx--><g class="link" data-entity-1="MedicalVisitForm.tsx" data-entity-2="VisitStateContext.tsx" data-source-line="18" data-uid="lnk15" id="link_MedicalVisitForm.tsx_VisitStateContext.tsx"><path d="M527.81,87.68 C527.63,109.47 527.4097,136.2902 527.2297,158.0302" fill="none" id="MedicalVisitForm.tsx-to-VisitStateContext.tsx" style="stroke:#181818;stroke-width:1;stroke-dasharray:7.0,7.0;"/><polygon fill="#181818" points="527.18,164.03,531.2544,155.0634,527.2214,159.0302,523.2547,154.9972,527.18,164.03" style="stroke:#181818;stroke-width:1;"/><text fill="#000000" font-family="sans-serif" font-size="13" lengthAdjust="spacing" textLength="32.9316" x="528" y="130.3669">state</text></g><!--link MedicalVisitForm.tsx to VisitPhotos.tsx--><g class="link" data-entity-1="MedicalVisitForm.tsx" data-entity-2="VisitPhotos.tsx" data-source-line="19" data-uid="lnk16" id="link_MedicalVisitForm.tsx_VisitPhotos.tsx"><path d="M435.12,82.62 C390.59,91.7 336.69,103.74 289,117.3 C241.8,130.72 195.0461,147.2782 156.3261,161.8382" fill="none" id="MedicalVisitForm.tsx-to-VisitPhotos.tsx" style="stroke:#181818;stroke-width:1;stroke-dasharray:7.0,7.0;"/><polygon fill="#181818" points="150.71,163.95,160.542,164.5263,155.3901,162.1901,157.7262,157.0382,150.71,163.95" style="stroke:#181818;stroke-width:1;"/><text fill="#000000" font-family="sans-serif" font-size="13" lengthAdjust="spacing" textLength="100.585" x="290" y="130.3669">capture/display</text></g><!--link MedicalVisitForm.tsx to PrescriptionBuilder.tsx--><g class="link" data-entity-1="MedicalVisitForm.tsx" data-entity-2="PrescriptionBuilder.tsx" data-source-line="20" data-uid="lnk17" id="link_MedicalVisitForm.tsx_PrescriptionBuilder.tsx"><path d="M485.46,87.68 C444.46,109.4 388.0518,139.2709 347.0018,161.0209" fill="none" id="MedicalVisitForm.tsx-to-PrescriptionBuilder.tsx" style="stroke:#181818;stroke-width:1;stroke-dasharray:7.0,7.0;"/><polygon fill="#181818" points="341.7,163.83,351.5254,163.1509,346.1182,161.4891,347.7799,156.0818,341.7,163.83" style="stroke:#181818;stroke-width:1;"/><text fill="#000000" font-family="sans-serif" font-size="13" lengthAdjust="spacing" textLength="79.5996" x="428" y="130.3669">compose Rx</text></g><!--link MedicalVisitForm.tsx to ui/form.tsx--><g class="link" data-entity-1="MedicalVisitForm.tsx" data-entity-2="ui/form.tsx" data-source-line="22" data-uid="lnk18" id="link_MedicalVisitForm.tsx_ui/form.tsx"><path d="M620.68,70.96 C732.95,78.85 915.01,94.63 979,117.3 C1087.38,155.69 1186.1611,246.6137 1229.4011,290.1337" fill="none" id="MedicalVisitForm.tsx-to-ui/form.tsx" style="stroke:#181818;stroke-width:1;stroke-dasharray:7.0,7.0;"/><polygon fill="#181818" points="1233.63,294.39,1230.1242,285.1862,1230.1059,290.8431,1224.4491,290.8248,1233.63,294.39" style="stroke:#181818;stroke-width:1;"/></g><!--link MedicalVisitForm.tsx to ui/input.tsx--><g class="link" data-entity-1="MedicalVisitForm.tsx" data-entity-2="ui/input.tsx" data-source-line="23" data-uid="lnk19" id="link_MedicalVisitForm.tsx_ui/input.tsx"><path d="M620.87,71.4 C728.62,79.61 894.03,95.58 913,117.3 C939.36,147.46 856.257,244.4187 814.317,289.9087" fill="none" id="MedicalVisitForm.tsx-to-ui/input.tsx" style="stroke:#181818;stroke-width:1;stroke-dasharray:7.0,7.0;"/><polygon fill="#181818" points="810.25,294.32,819.2914,290.4144,813.6392,290.6439,813.4097,284.9917,810.25,294.32" style="stroke:#181818;stroke-width:1;"/></g><!--link MedicalVisitForm.tsx to ui/select.tsx--><g class="link" data-entity-1="MedicalVisitForm.tsx" data-entity-2="ui/select.tsx" data-source-line="24" data-uid="lnk20" id="link_MedicalVisitForm.tsx_ui/select.tsx"><path d="M620.69,68.79 C725.3,74.28 887.83,87.44 941,117.3 C1015.71,159.25 1065.6453,246.3592 1086.8853,289.0092" fill="none" id="MedicalVisitForm.tsx-to-ui/select.tsx" style="stroke:#181818;stroke-width:1;stroke-dasharray:7.0,7.0;"/><polygon fill="#181818" points="1089.56,294.38,1089.1285,284.5406,1087.3311,289.9043,1081.9674,288.1069,1089.56,294.38" style="stroke:#181818;stroke-width:1;"/></g><!--link MedicalVisitForm.tsx to ui/textarea.tsx--><g class="link" data-entity-1="MedicalVisitForm.tsx" data-entity-2="ui/textarea.tsx" data-source-line="25" data-uid="lnk21" id="link_MedicalVisitForm.tsx_ui/textarea.tsx"><path d="M561.18,87.75 C607.6,121.98 681.58,187.95 638,234.59 C618.99,254.94 414.15,242.05 388,251.59 C362.82,260.78 343.0381,275.4167 326.2281,290.4067" fill="none" id="MedicalVisitForm.tsx-to-ui/textarea.tsx" style="stroke:#181818;stroke-width:1;stroke-dasharray:7.0,7.0;"/><polygon fill="#181818" points="321.75,294.4,331.1294,291.3955,325.4818,291.0723,325.805,285.4246,321.75,294.4" style="stroke:#181818;stroke-width:1;"/></g><!--link MedicalVisitForm.tsx to ui/dialog.tsx--><g class="link" data-entity-1="MedicalVisitForm.tsx" data-entity-2="ui/dialog.tsx" data-source-line="26" data-uid="lnk22" id="link_MedicalVisitForm.tsx_ui/dialog.tsx"><path d="M620.99,79.6 C666.54,88.5 715,101.27 731,117.3 C768.03,154.38 769.7,189.5 743,234.59 C734.99,248.11 725.03,242.82 712,251.59 C692.68,264.6 676.9095,277.2782 661.5695,290.4682" fill="none" id="MedicalVisitForm.tsx-to-ui/dialog.tsx" style="stroke:#181818;stroke-width:1;stroke-dasharray:7.0,7.0;"/><polygon fill="#181818" points="657.02,294.38,666.4521,291.5452,660.8112,291.1201,661.2363,285.4793,657.02,294.38" style="stroke:#181818;stroke-width:1;"/></g><!--link MedicalVisitForm.tsx to ui/button.tsx--><g class="link" data-entity-1="MedicalVisitForm.tsx" data-entity-2="ui/button.tsx" data-source-line="27" data-uid="lnk23" id="link_MedicalVisitForm.tsx_ui/button.tsx"><path d="M621.06,71.72 C651.1,78.8 681.41,92.23 700,117.3 C733.44,162.38 738.61,202.84 700,243.59 C688.67,255.55 567.4,245.75 552,251.59 C528.2,260.62 510.1916,275.0567 494.8716,290.0967" fill="none" id="MedicalVisitForm.tsx-to-ui/button.tsx" style="stroke:#181818;stroke-width:1;stroke-dasharray:7.0,7.0;"/><polygon fill="#181818" points="490.59,294.3,499.8146,290.8494,494.158,290.7972,494.2102,285.1406,490.59,294.3" style="stroke:#181818;stroke-width:1;"/></g><!--link MedicalVisitForm.tsx to ui/table.tsx--><g class="link" data-entity-1="MedicalVisitForm.tsx" data-entity-2="ui/table.tsx" data-source-line="28" data-uid="lnk24" id="link_MedicalVisitForm.tsx_ui/table.tsx"><path d="M620.95,72.46 C666.23,79.24 720.03,92.26 763,117.3 C840.58,162.49 900.0768,247.4103 926.3968,289.2803" fill="none" id="MedicalVisitForm.tsx-to-ui/table.tsx" style="stroke:#181818;stroke-width:1;stroke-dasharray:7.0,7.0;"/><polygon fill="#181818" points="929.59,294.36,928.1867,284.6116,926.929,290.1269,921.4137,288.8692,929.59,294.36" style="stroke:#181818;stroke-width:1;"/></g><!--link PrescriptionBuilder.tsx to ui/input.tsx--><g class="link" data-entity-1="PrescriptionBuilder.tsx" data-entity-2="ui/input.tsx" data-source-line="30" data-uid="lnk25" id="link_PrescriptionBuilder.tsx_ui/input.tsx"><path d="M346.3,211.08 C367.19,220.02 392.33,229.39 416,234.59 C480.35,248.75 650.81,227.17 712,251.59 C734.77,260.68 751.5289,274.9587 765.7889,289.9787" fill="none" id="PrescriptionBuilder.tsx-to-ui/input.tsx" style="stroke:#181818;stroke-width:1;stroke-dasharray:7.0,7.0;"/><polygon fill="#181818" points="769.92,294.33,766.6242,285.049,766.4774,290.7039,760.8224,290.5571,769.92,294.33" style="stroke:#181818;stroke-width:1;"/></g><!--link PrescriptionBuilder.tsx to ui/select.tsx--><g class="link" data-entity-1="PrescriptionBuilder.tsx" data-entity-2="ui/select.tsx" data-source-line="31" data-uid="lnk26" id="link_PrescriptionBuilder.tsx_ui/select.tsx"><path d="M345.39,211.05 C366.42,220.16 391.93,229.67 416,234.59 C481.77,248.05 957.07,228.21 1020,251.59 C1043.51,260.33 1061.0257,274.7093 1075.8857,289.8393" fill="none" id="PrescriptionBuilder.tsx-to-ui/select.tsx" style="stroke:#181818;stroke-width:1;stroke-dasharray:7.0,7.0;"/><polygon fill="#181818" points="1080.09,294.12,1076.6374,284.8962,1076.5864,290.5528,1070.9298,290.5019,1080.09,294.12" style="stroke:#181818;stroke-width:1;"/></g><!--link PrescriptionBuilder.tsx to ui/textarea.tsx--><g class="link" data-entity-1="PrescriptionBuilder.tsx" data-entity-2="ui/textarea.tsx" data-source-line="32" data-uid="lnk27" id="link_PrescriptionBuilder.tsx_ui/textarea.tsx"><path d="M299,211.09 C299,234.54 299,264.96 299,288.33" fill="none" id="PrescriptionBuilder.tsx-to-ui/textarea.tsx" style="stroke:#181818;stroke-width:1;stroke-dasharray:7.0,7.0;"/><polygon fill="#181818" points="299,294.33,303,285.33,299,289.33,295,285.33,299,294.33" style="stroke:#181818;stroke-width:1;"/></g><!--link PrescriptionBuilder.tsx to ui/button.tsx--><g class="link" data-entity-1="PrescriptionBuilder.tsx" data-entity-2="ui/button.tsx" data-source-line="33" data-uid="lnk28" id="link_PrescriptionBuilder.tsx_ui/button.tsx"><path d="M331.44,210.83 C348.44,222.72 369.52,237.71 388,251.59 C406.46,265.46 422.1219,277.8306 437.9119,290.5806" fill="none" id="PrescriptionBuilder.tsx-to-ui/button.tsx" style="stroke:#181818;stroke-width:1;stroke-dasharray:7.0,7.0;"/><polygon fill="#181818" points="442.58,294.35,438.0907,285.5838,438.6899,291.2088,433.0648,291.808,442.58,294.35" style="stroke:#181818;stroke-width:1;"/></g><!--SRC=[XL6nJaCn3DpVLrYTO7di30nKGc90ga2m80OtpxGHQHB5ZlGGujzvAL0SrDUCET_5vxk8vWqt18idorOObc4NWoSll82F3k3vZWPhqEt7Do7jUk7nfGpso8EWq39ueL7goMeR9F01MoLYasmK6_nrjcwWz3txxBhuw-7n5ivuYuFnvp_RixrurKkdj_KnYmQO79aAAMum4MfiiEZ2HYFhB19yfSEreuEjuwT3tr_D7G-Nm0LhIrKwayXWb9neyiZHuVj9-LoGvPlI7HFSZwVDLw4sY2hj1bFNqA3M_JJ8khW6LJVQil1NTJUVwR4KckGgY2RxNnPDlhxn2m00]--></g></svg>